<?xml version="1.0" encoding="utf-8"?>
<!-- Generator: Adobe Illustrator 23.0.3, SVG Export Plug-In . SVG Version: 6.00 Build 0)  -->
<svg version="1.1" id="Camada_1" xmlns="http://www.w3.org/2000/svg" xmlns:xlink="http://www.w3.org/1999/xlink" x="0px" y="0px"
	 viewBox="0 0 928 354.6" style="enable-background:new 0 0 928 354.6;" xml:space="preserve">
<style type="text/css">
	.st0{fill:#020A0A;}
</style>
<path class="st0" d="M67.22,251.27V3.22h51.13v89.58h67.93v49.16h-67.93v109.3c0,15.23,4.8,27.38,14.67,37.12
	c9.94,9.82,21.73,14.59,36.05,14.59h17.69v49.16h-17.69c-27.88,0-52.02-9.5-71.74-28.25C77.36,304.93,67.22,280.49,67.22,251.27z
	 M227.77,323.9c19.72,18.74,43.86,28.25,71.74,28.25h17.69v-49.16h-17.69c-14.32,0-26.12-4.77-36.05-14.59
	c-9.87-9.75-14.67-21.89-14.67-37.12v-109.3h67.92V92.81h-67.92V3.22h-51.13v248.05C197.66,280.49,207.79,304.93,227.77,323.9z
	 M448.07,354.6h-4.43c-36.34,0-67.95-13.66-93.94-40.6c-25.83-26.76-38.93-58.46-38.93-94.24c0-35.91,13.35-67.38,39.68-93.52
	c26.29-26.11,58.39-39.35,95.4-39.35c37.02,0,69.05,13.25,95.2,39.39c26.14,26.15,39.39,57.68,39.39,93.73
	c0,35.91-12.91,67.6-38.38,94.19C516.39,341.01,484.76,354.6,448.07,354.6z M504.57,161.24c-16.54-16.94-35.66-25.18-58.46-25.18
	c-22.83,0-42.13,8.34-59.01,25.48c-16.95,17.23-25.19,36.76-25.19,59.7c0,22.89,8.21,42.22,25.09,59.11
	c16.88,16.88,36.3,25.09,59.35,25.09c22.97,0,42.09-8.16,58.46-24.93c16.49-16.9,24.51-36.37,24.51-59.51
	C529.32,197.86,521.22,178.32,504.57,161.24z M645.9,159.35v-55.4c0-15.2,4.79-27.33,14.65-37.07c9.93-9.8,21.7-14.56,36-14.56
	h17.66V3.22h-17.66c-27.83,0-51.93,9.49-71.63,28.2c-19.96,18.95-30.07,43.35-30.07,72.52v248.2h51.05V208.44h51.74v-49.09H645.9z
	 M736.46,352.14h51.05V93.16h-51.05V352.14z M761.98,61.87c19.09,0,31.92-12.43,31.92-30.93C793.9,12.43,781.07,0,761.98,0
	c-19.09,0-31.92,12.43-31.92,30.93C730.07,49.44,742.89,61.87,761.98,61.87z M910.34,303.02c-14.3,0-26.08-4.76-36-14.56
	c-9.86-9.73-14.65-21.86-14.65-37.07V142.25h67.82V93.16h-67.82V3.72h-51.05v247.67c0,29.18,10.12,53.58,30.07,72.52
	c19.69,18.72,43.8,28.2,71.64,28.2H928v-49.09H910.34z M31.92,354.38c19.09,0,31.92-12.43,31.92-30.93
	c0-18.5-12.83-30.93-31.92-30.93C12.83,292.51,0,304.95,0,323.45C0,341.95,12.83,354.38,31.92,354.38z"/>
</svg>
